/* XPM */
static char *ba508d6cc7fb431d87d83ce913d34a0c0fWTRcr7eY6yaXPZ[] = {
/* columns rows colors chars-per-pixel */
"16 16 3 1 ",
"  c gray40",
". c gray60",
"X c gray80",
/* pixels */
"  ..   .X.. .X..",
" .X.. XX...  . .",
" ...  ....    . ",
"  .   . .  ...  ",
"   .X. .  X.... ",
"X .X..   ..X.. .",
".. ....    ..  X",
"..  ..  .X.  . .",
"  X.   .X...    ",
" X.. .  ..   .. ",
". . .        ..X",
".     .X.   .XX.",
" .X.  X...  .. .",
" X... .. ..   . ",
"... .   ..  ..  ",
" .   .     .X.. "
};
