/* XPM */
static char *_48b4c39abd34963d88e29a6d2f8df31J8OF4kQmTPnX28am[] = {
/* columns rows colors chars-per-pixel */
"30 30 4 1 ",
"  c red",
". c green",
"X c blue",
"o c white",
/* pixels */
"               XXXXXXXXXXXXXXX",
"               XXXXXXXXXXXXXXX",
"               XXXXXXXXXXXXXXX",
"               XXXXXXXXXXXXXXX",
"               XXXXXXXXXXXXXXX",
"               XXXXXXXXXXXXXXX",
"               XXXXXXXXXXXXXXX",
"               XXXXXXXXXXXXXXX",
"               XXXXXXXXXXXXXXX",
"               XXXXXXXXXXXXXXX",
"               XXXXXXXXXXXXXXX",
"               XXXXXXXXXXXXXXX",
"               XXXXXXXXXXXXXXX",
"               XXXXXXXXXXXXXXX",
"               XXXXXXXXXXXXXXX",
"...............ooooooooooooooo",
"...............ooooooooooooooo",
"...............ooooooooooooooo",
"...............ooooooooooooooo",
"...............ooooooooooooooo",
"...............ooooooooooooooo",
"...............ooooooooooooooo",
"...............ooooooooooooooo",
"...............ooooooooooooooo",
"...............ooooooooooooooo",
"...............ooooooooooooooo",
"...............ooooooooooooooo",
"...............ooooooooooooooo",
"...............ooooooooooooooo",
"...............ooooooooooooooo"
};
