/* XPM */
static char *_1a2b0fe8a8f4f83b99abea69ee224c3REUidAT9fs7WGhMv[] = {
/* columns rows colors chars-per-pixel */
"32 32 7 1 ",
"  c gray14",
". c #484848",
"X c #6D6D6D",
"o c gray57",
"O c #B6B6B6",
"+ c #DADADA",
"@ c white",
/* pixels */
"++++++++++++++++++++++++++++++++",
"+++++++++++++++OO+++++++++++++++",
"++OOOOO+OOOOO++OO++OOOOO+OOOOO++",
"++OXXXX+OXXXX++OO++XXXXO+XXXXO++",
".+OXXXX@OXXXX@+OO+@XXXXO@XXXXO+.",
"o+OXXXX+OXXXX++OO++XXXXO+XXXXO+o",
"++++@@++++@@+++OO+++@@++++@@++++",
"++OOOOO+OOOOO++OO++OOOOO+OOOOO++",
"++OXXXX+OXXXX++OO++XXXXO+XXXXO++",
"++OXXXX@OXXXX@+OO+@XXXXO@XXXXO++",
"++OXXXX+OXXXX++OO++XXXXO+XXXXO++",
"++++@@++++@@+++OO+++@@++++@@++++",
"+++++++++++++++OO+++++++++++++++",
"++OOOOO+OOOOO++OO++OOOOO+OOOOO++",
"++O+++++O++ oo+OO+oo ++O+++++O++",
".+O+++O+O++ O++OO++O ++O+O+++O+.",
" +O++++@O++OO@+OO+@OO++O@++++O+ ",
"++++@@@+++@@@++OO++@@@+++@@@++++",
"+++++++++++++++OO+++++++++++++++",
"++OOOOO+OOOOO++OO++OOOOO+OOOOO++",
"++O+++++O++++++OO++++++O+++++O++",
"++O++++@O++++@+OO+@++++O@++++O++",
"++O++++@O++++@+OO+@++++O@++++O++",
"++++@@@+++@@@++OO++@@@+++@@@++++",
"+++++++++++++++OO+++++++++++++++",
"++OOOOO++OOOO++OO++OOOO++OOOOO++",
" +O+++++O++++++OO++++++O+++++O+ ",
" +O++++@O++++@+OO+@++++O@++++O+ ",
"++O++++@O++++@+OO+@++++O@++++O++",
"++++@@@+++@@@++OO++@@@+++@@@++++",
"++++++++++++++OOOO++++++++++++++",
"OOOOOOOOOOOOOOOOOOOOOOOOOOOOOOOO"
};
