/* XPM */
static char *result[] = {
/* columns rows colors chars-per-pixel */
"30 30 11 1 ",
"  c #5BCFFF",
". c #5CCFFF",
"X c #5DCFFF",
"o c #5ECFFF",
"O c #60D2FF",
"+ c #63D5FF",
"@ c #6FE1FF",
"# c #81DCF8",
"$ c #84E1F8",
"% c #CFFBFF",
"& c #D7FBFF",
/* pixels */
"######&&######################",
"######&&######################",
"##&&&&&&&&&&&  &&&&&&&&&&&&&@@",
"##&&&&&&&&&&&  &&&&&&&&&&&&&@@",
"##&&&&  &&&  &&&&&&&&&&&&&&&&&",
"##&&&&  &&&  &&&&&&&&&&&&&&&&&",
"##&&  &&&&&&&&&&&&&&&&&&&&  @@",
"##&&  &&&&&&&&&&&  &&&&&&&  @@",
"##  &&&&&&&&&&&&&  &&&&&  &&@@",
"##  &&&&&&&&&&&  &&&&&&&  &&@@",
"##&&&&&&&&&&&&&  &&&&&  &&&&&&",
"##&&&&&&&&&&&  &&&&&&&  &&&&&&",
"&&&&&&&&&&&&&  &&&&&&&&&&&&&@@",
"&&&&  &&&&&  &&&&&&&&&&&&&&&@@",
"##&&  &&&&&  &&&&&&&&&&&&&&&@@",
"##  &&&&&&&&&&&&&&&&&&&&&&&&@@",
"##  &&&&&&&&&&&&&&&&&&&&&&&&@@",
"#$&&&&&&&&&&&&&  &&&&&&&&&&&&&",
"&&&&&&&&&&&&&&&  &&&&&&&&  &&&",
"&&&&&&&&&&&&&  &&&&&&&&&&+ &&&",
"##&&&&&&&&&%%  &&&&&&&& o&&&&&",
"##&&&&&&&&& X%&&&&&&&&&  &&&@@",
"&& O%&&&&&&  %&&&&&&&  &&&&&@@",
"&&..%&&&&&&&&&&&&&&&&  &&&&&@@",
"##&&&&&&&&&&&&&&&&&  &&&&&&&@@",
"##&&&&&&&&&&&&&&&&&  &&&&&&&@@",
"##&&&&&&&&&&&&&&&&&&&&&&&&&&@@",
"##&&&&&&&&&&&&&&&&&&&&&&&&&&@@",
"##@@@@@@@@@&&&&@@@@&&@@@@@@@@@",
"##@@@@@@@@@&&&&@@@@&&@@@@@@@@@"
};
